<svg class="empty" width="20" height="18" xmlns="http://www.w3.org/2000/svg">
  <defs>
    <linearGradient x1="50%" y1="28.069%" x2="50%" y2="91.971%" id="a">
      <stop stop-color="#3A5AC6" offset="0%"/>
      <stop stop-color="#24C6CF" offset="100%"/>
    </linearGradient>
  </defs>
  <path d="M16.881 8.42a3.704 3.704 0 0 0 0-5.306 3.924 3.924 0 0 0-5.478 0L10 4.496 8.597 3.114a3.924 3.924 0 0 0-5.478 0 3.704 3.704 0 0 0 0 5.305l8.284 8.156H8.597l8.284-8.156zm1.403 1.425L10 18 1.716 9.845a5.704 5.704 0 0 1 0-8.156C4.003-.563 7.712-.563 10 1.69c2.288-2.252 5.997-2.252 8.284 0a5.704 5.704 0 0 1 0 8.156z" fill="url(#a)"/>
</svg>
